<?xml version="1.0" encoding="UTF-8"?>
<svg id="Layer_1" xmlns="http://www.w3.org/2000/svg" version="1.1" viewBox="0 0 191.8 148">
  <!-- Generator: Adobe Illustrator 29.0.1, SVG Export Plug-In . SVG Version: 2.1.0 Build 192)  -->
  <defs>
    <style>
      .st0 {
        fill: #3291c9;
      }

      .st1 {
        fill: #fff;
      }
    </style>
  </defs>
  <path d="M191.5,78.5c-.5-1.3-1.7-2.2-3.1-2.4-3-.5-6.7-1.9-10.9-4.1.2-1.5-.4-2.9-1.7-3.8-2.9-2.1-5.6-6.6-8.8-11.9-1-1.6-2-3.3-3.1-5.1,2.5-3.5,4-5.7,4.8-7,.3-.4.6-.8.8-1.3,0,0,0-.1,0-.1h0c5.9-10,8.9-27.6,5.8-36.1-1.5-4.3-4.3-5.8-6.3-6.4-1-.3-2.1-.4-3.3-.4-9.8,0-23.8,9.6-34.5,18.2-.3-.2-.6-.4-1-.5-11.2-3.8-27.6-4.1-32.4-4.1s-1.6,0-2.4,0c-.7,0-1.5,0-2.4,0-4.8,0-21.1.3-32.4,4.1-.4.1-.7.3-1,.5C49.4,9.6,35.5,0,25.6,0s-2.3.1-3.3.4c-2,.5-4.7,2-6.3,6.4-3.1,8.6,0,26.1,5.8,36.1h0s0,0,0,.1c.3.5.6.9.9,1.4.8,1.3,2.3,3.5,4.8,6.9-1.1,1.8-2.1,3.5-3.1,5.1-3.1,5.3-5.8,9.8-8.8,11.9-1.3.9-1.9,2.4-1.7,3.9-4.1,2.2-7.7,3.6-10.7,4-1.4.2-2.6,1.1-3.1,2.4-.5,1.3-.3,2.8.5,3.9.9,1.1,2.6,2.6,4.5,4-.4.4-.6.8-.8,1.3-.6,1.6-.1,3.3,1.1,4.4,6.2,5.4,24.9,18.1,51.6,27.5.4.2.9.2,1.3.2,1.2,0,2.4-.6,3.2-1.5.7,2.3,2.3,4.7,4.8,7.5,3.6,4,9.9,9.2,15.3,11.8-.2,1,0,2.1.6,3,3,4.6,8.7,7.4,14.7,7.4s11.7-2.8,14.7-7.4c.7-1.1.9-2.5.4-3.6,5.1-2.7,10.6-7.4,14-11.1,2.2-2.5,3.8-4.8,4.6-6.9.7.6,1.7,1,2.6,1s.9,0,1.3-.2c26.7-9.4,45.5-22.1,51.6-27.5,1.3-1.1,1.7-2.9,1.1-4.4-.2-.5-.5-1-.8-1.3,2-1.4,3.7-2.9,4.5-4,.8-1.1,1-2.6.5-3.9Z"/>
  <g>
    <path class="st1" d="M96,115.2c3.7,0,7,1.4,9.1,3.5.6.6.1,1.4-.7,1.4h-16.9c-.8,0-1.2-.9-.7-1.4,2.1-2.1,5.4-3.5,9.1-3.5Z"/>
    <path class="st1" d="M108.4,138.4c-2.2,3.3-6.5,5.6-11.4,5.6s-9.2-2.3-11.4-5.6c3.2,1.3,7.1,2.1,11.4,2.1s8.2-.8,11.4-2.1Z"/>
    <path class="st1" d="M23.4,84.6c5.3,12.1,25.7,25.9,35.2,31.3-26.5-9.3-44.6-21.7-50.3-26.7h8.8c-3.6-2.1-11.3-6.9-13-9.1,9.3-1.4,21-9.7,25.7-13.7-.2,0-1.7-.2-5.6-1.1,2.1.4,6.3-.7,13-5.3,5.3-3.7,13.7-4.6,17.2-4.6-.1-.8-1.4-3-5.6-5.3,14.9-2.8,25,9.6,28.2,16.2v-10.9c13.4,14.1,7,25.7,4.6,26-2.5.4-17.9-15.1-25.3-15.1s-10.9,5.6-32.7,18.3Z"/>
    <path class="st1" d="M168.5,84.6c-5.3,12.1-25.7,25.9-35.2,31.3,26.5-9.3,44.6-21.7,50.3-26.7h-8.8c3.6-2.1,11.3-6.9,13-9.1-9.3-1.4-21-9.7-25.7-13.7.2,0,1.7-.2,5.6-1.1-2.1.4-6.3-.7-13-5.3-5.3-3.7-13.7-4.6-17.2-4.6.1-.8,1.4-3,5.6-5.3-14.9-2.8-25,9.6-28.1,16.2v-10.9c-13.4,14.1-7,25.7-4.6,26,2.5.4,17.9-15.1,25.3-15.1s10.9,5.6,32.7,18.3Z"/>
    <path class="st0" d="M106.9,75.2c-.7-4.8.6-11.9,8.1-19.8v10.9c3.2-6.6,13.2-19,28.1-16.2-4.2,2.3-5.5,4.5-5.6,5.3,3.5,0,11.9.9,17.2,4.6,6.7,4.6,10.9,5.6,13,5.3-3.9.8-5.4,1.1-5.6,1.1,1.5,1.3,3.7,3,6.3,4.7,2.1.3,3.9.4,5.2.4-9.5-6.7-13.7-28.9-36.9-43.3,10.6-15.5,25-22.2,30.6-20.1,5.6,2.1,2.1,20.1-2.1,34.5,7.4-10.2,11.3-36.2,3.2-38.4-8.1-2.1-25,8.4-42.2,23.9.7-1.4,2.3-4.7,3.2-6.7-10.2-3.5-25.9-4.1-33.4-3.9-7.5-.2-23.2.4-33.4,3.9.8,2,2.5,5.3,3.2,6.7C48.3,12.7,31.4,2.2,23.4,4.3c-8.1,2.1-4.2,28.2,3.2,38.4-4.2-14.4-7.7-32.4-2.1-34.5,5.6-2.1,20.1,4.6,30.6,20.1-23.2,14.4-27.4,36.6-36.9,43.3,1.3,0,3.2-.2,5.4-.4,2.6-1.8,4.7-3.5,6.2-4.7-.2,0-1.7-.2-5.6-1.1,2.1.4,6.3-.7,13-5.3,5.3-3.7,13.7-4.6,17.2-4.6-.1-.8-1.4-3-5.6-5.3,14.9-2.8,25,9.6,28.2,16.2v-10.9c6.7,7.1,8.5,13.5,8.2,18.2.5-4-.5-11.1-5.4-22.6,9.5,10.2,9.5,21.1,9.5,26.7,0,5.6-3.2,8.4-2.8,10.9.3,2.4,1.7,1.4,1.8,24.1,2.3-1.4,5.1-2.2,8.1-2.2s5.2.7,7.4,1.8c0-22.2,1.4-21.3,1.8-23.7.4-2.5-2.8-5.3-2.8-10.9,0-5.6,0-16.5,9.5-26.7-5.7,13.2-6.1,20.6-5.1,24.2Z"/>
    <g>
      <path class="st1" d="M107.3,98.3c-1.5,0-2.6,1.2-3.5,3.2-.1,2.8-.2,6.4-.2,10.9,0,0,0,0-.1,0,3.9,2,6.5,5.5,6.5,9.6s-4.7,9.9-10.9,11c.3,1.7,2.2,2.4,6.1,2.4,5.6,0,22.9-13.7,22.2-20.1-.7-6.3-12.7-16.5-20.1-16.9Z"/>
      <path class="st1" d="M102.9,112.1c-.1,0-.2,0-.3-.1.1,0,.2,0,.3.1Z"/>
      <path class="st1" d="M102.1,111.7c-.1,0-.2,0-.4-.1.1,0,.2,0,.4.1Z"/>
    </g>
    <g>
      <path class="st1" d="M90.5,111.7c.2,0,.3-.1.5-.2-.2,0-.4.1-.5.2Z"/>
      <path class="st1" d="M82.5,121.9c0-3.8,2.3-7.1,5.8-9.2,0,0-.1,0-.2.1,0-5.7-.1-9.8-.2-13-.7-1-1.6-1.5-2.5-1.5-7.4.4-19.4,10.6-20.1,16.9-.7,6.3,16.5,20.1,22.2,20.1,3.9,0,5.7-.7,6.1-2.3-6.3-1-11-5.6-11-11Z"/>
      <path class="st1" d="M89.6,112c.2,0,.3-.1.5-.2-.2,0-.3.1-.5.2Z"/>
      <path class="st1" d="M88.7,112.5c.2,0,.3-.2.5-.2-.2,0-.3.2-.5.2Z"/>
    </g>
    <path class="st1" d="M131.2,73.7c.6,1.1.9,2.4.9,3.7,0,5.1-4.6,9.1-10.2,9.1-1.3,0-2.6-.2-3.8-.7l.6-2.2c.4,0,.7,0,1.1,0,3.7,0,6.7-2.7,6.7-6s0-.8-.1-1.3l4.9-2.8Z"/>
    <path class="st1" d="M61.2,73.7c-.6,1.1-.9,2.4-.9,3.7,0,5.1,4.6,9.1,10.2,9.1,1.3,0,2.6-.2,3.8-.7l-.6-2.2c-.4,0-.7,0-1.1,0-3.7,0-6.7-2.7-6.7-6,0-.4,0-.8.1-1.3l-4.9-2.8Z"/>
  </g>
</svg>